PathFileType	4	(X/Y/Z)	C:/Users/opensim2020/Desktop/walking_exp_matlab/subject03_walking06_straight_03.trc	
DataRate	CameraRate	NumFrames	NumMarkers	Units	OrigDataRate	OrigDataStartFrame	OrigNumFrames	
100.00	100.00	5	44	mm	100.00	2205	280	
Frame#	Time	LFHD			RFHD			LBHD			RBHD			C7			T10			CLAV			STRN			RBAK			LSHO			LUPA			LELB			LFRM			LWRA			LWRB			LFIN			RSHO			RUPA			RELB			RFRM			RWRA			RWRB			RFIN			LASI			RASI			LPSI			RPSI			LTHI			LKNE			LTIB			LANK			LHEE			LTOE			RTHI			RKNE			RTIB			RANK			RHEE			RTOE			*39			*40			*41			*42			*43			
		X1	Y1	Z1	X2	Y2	Z2	X3	Y3	Z3	X4	Y4	Z4	X5	Y5	Z5	X6	Y6	Z6	X7	Y7	Z7	X8	Y8	Z8	X9	Y9	Z9	X10	Y10	Z10	X11	Y11	Z11	X12	Y12	Z12	X13	Y13	Z13	X14	Y14	Z14	X15	Y15	Z15	X16	Y16	Z16	X17	Y17	Z17	X18	Y18	Z18	X19	Y19	Z19	X20	Y20	Z20	X21	Y21	Z21	X22	Y22	Z22	X23	Y23	Z23	X24	Y24	Z24	X25	Y25	Z25	X26	Y26	Z26	X27	Y27	Z27	X28	Y28	Z28	X29	Y29	Z29	X30	Y30	Z30	X31	Y31	Z31	X32	Y32	Z32	X33	Y33	Z33	X34	Y34	Z34	X35	Y35	Z35	X36	Y36	Z36	X37	Y37	Z37	X38	Y38	Z38	X39	Y39	Z39	X40	Y40	Z40	X41	Y41	Z41	X42	Y42	Z42	X43	Y43	Z43	X44	Y44	Z44	

211	2.100	1403.34766	820.41974	1621.12109	1536.27258	827.16089	1627.70386	1415.28247	692.05542	1577.57886	1545.67065	703.88684	1583.93506	1480.17383	665.01978	1421.33252	1478.23608	629.64789	1107.60059	1469.65735	786.09589	1343.87268	1461.81458	828.99359	1179.86572	1582.20239	620.00665	1246.71692	1318.34766	727.41443	1380.80322	1248.88562	705.56610	1182.60437	1237.60999	708.72809	1059.05115	1237.73804	733.40869	931.06976	1268.32715	750.96631	812.74683	1217.34009	727.42462	818.61810	1226.63477	742.25275	735.44006	1632.30603	755.25928	1368.76575	1710.47632	791.91235	1152.28687	1723.66309	830.01978	1047.04053	1721.68164	881.52289	920.27930	1680.30969	931.78571	837.21924	1726.40137	907.26270	823.17798	1713.70105	949.18781	763.00006	1355.87512	793.99744	942.76361	1592.82837	798.73059	946.67749	1407.16382	632.54852	960.62140	1555.82996	636.94421	977.67590	1295.40369	812.42419	649.41211	1317.09143	878.26477	481.97614	1335.06335	804.20544	297.31683	1388.68469	755.48120	97.12252	1435.19690	714.59119	69.13725	1388.73755	892.10547	44.04181	1631.07458	720.62006	654.25916	1595.00867	711.88672	474.85825	1594.77490	643.73364	294.74066	1541.64209	596.92279	83.37966	1489.20142	553.01996	55.79502	1529.16528	737.14801	35.92932	1461.11414	740.53656	1682.94678												 
212	2.110	1402.33179	830.16168	1620.20947	1535.39185	837.36676	1627.20093	1414.84033	701.93243	1576.68298	1545.08704	714.05804	1583.37805	1479.82214	674.68799	1420.62573	1477.50305	639.32239	1107.03369	1469.22559	795.84442	1343.04309	1461.70142	838.64038	1179.00391	1581.98425	629.69202	1246.23303	1317.93359	736.82574	1379.92676	1248.64722	713.03455	1181.78552	1237.37805	714.90277	1058.17017	1237.58252	738.23773	929.96912	1268.18811	754.71747	811.57385	1217.09619	731.23773	817.67340	1226.38843	745.74677	734.22375	1631.95972	765.31281	1368.19116	1710.20813	803.06964	1152.07520	1723.46606	842.50171	1047.41650	1721.01929	895.84570	921.45276	1679.15918	947.11896	839.37024	1725.31958	922.97742	824.76514	1712.29004	965.98053	765.42194	1356.21069	804.22113	941.70447	1593.02856	807.44983	946.00348	1406.55481	643.27576	959.95624	1554.91943	645.99066	977.50531	1294.73071	822.66516	648.55139	1318.04297	888.36414	481.41428	1335.92175	823.39276	293.51941	1388.64185	786.45258	90.68444	1435.66882	747.98737	60.23576	1387.27649	926.37030	44.32233	1631.09277	726.85254	654.09741	1595.29932	716.06171	474.85229	1594.87524	645.84845	295.42871	1541.62500	597.15491	84.24044	1489.02893	553.31708	57.03806	1529.34180	737.38574	35.91179	1459.98389	750.38245	1682.05322												 
213	2.120	1401.30823	839.87958	1619.23853	1534.11792	847.32892	1626.41284	1414.25586	711.71204	1575.67358	1544.41602	724.16962	1582.68591	1479.55298	684.82019	1419.97839	1476.37866	649.11768	1106.13379	1468.77246	805.65033	1342.11255	1461.57861	848.33112	1178.10217	1581.58435	639.47571	1245.67126	1317.44666	746.34503	1379.01038	1248.29871	720.79095	1180.99817	1237.16064	721.23132	1057.29822	1237.36853	743.34790	928.93475	1268.15784	758.70502	810.31226	1217.33215	735.00031	816.39160	1226.79077	748.53961	733.02466	1631.51855	775.33789	1367.49231	1710.07642	814.38300	1151.88745	1722.99976	854.91382	1047.64307	1720.25928	909.91913	922.50159	1677.82288	962.07977	841.30701	1724.11096	938.54822	826.24231	1710.77002	982.47711	767.77277	1356.15271	814.38885	940.28229	1593.13000	816.28528	945.27112	1405.25769	651.63025	960.06445	1553.89819	655.08704	977.25305	1294.51355	832.12323	647.26880	1319.09460	898.33270	480.51440	1336.80457	842.48071	289.93121	1388.56360	817.85864	84.90051	1435.86279	781.69458	52.55568	1385.72656	960.05463	44.90928	1631.10083	733.08179	653.89813	1595.59570	720.42432	474.81967	1594.99402	648.01691	296.10706	1541.76953	597.62366	85.32600	1488.92200	553.68512	58.35893	1529.54272	737.51685	35.79188	1458.64575	760.26373	1680.99951												 
214	2.130	1400.30933	849.59528	1618.18958	1533.05981	857.36377	1625.64124	1413.88342	721.57123	1574.46277	1543.79749	734.22052	1581.88672	1479.15405	694.78418	1419.06079	1475.31799	658.75195	1105.34351	1468.33704	815.57959	1341.07275	1461.37476	858.13483	1177.05090	1581.04431	649.29895	1244.92358	1316.87854	756.08148	1378.00708	1247.84583	728.56653	1180.01233	1236.89063	727.72992	1056.41577	1237.45459	748.55768	927.77698	1268.03345	763.01227	809.08923	1217.35559	739.16626	815.28076	1227.03772	751.95673	731.84070	1631.01831	785.40576	1366.68433	1709.86182	825.58875	1151.55383	1722.84534	867.03955	1047.76306	1719.40759	923.82196	923.45508	1676.39905	976.82220	843.12207	1722.78931	953.82892	827.62585	1709.10535	998.59662	769.91937	1356.02747	824.58405	938.75305	1593.11035	825.21100	944.38989	1404.13464	662.08954	958.96729	1552.78503	664.27087	976.95129	1294.92407	840.94171	645.64429	1320.81470	907.88159	479.06189	1337.67664	861.37000	286.69180	1387.75806	848.65070	79.73276	1435.72888	815.15796	46.23779	1383.91809	993.09064	45.72230	1631.19568	739.33984	653.72247	1595.83105	724.90546	474.76520	1595.02722	650.31714	296.75156	1541.87427	598.00519	86.18916	1488.85620	554.01038	59.68828	1529.77124	737.64825	35.71109	1457.90161	770.02448	1680.10303												 
215	2.140	1399.06238	859.18500	1617.04382	1532.03418	867.38104	1624.79504	1413.32898	731.67810	1573.57153	1543.09509	744.34381	1580.92688	1478.66980	704.88940	1418.21838	1474.06580	668.84491	1104.46985	1467.83594	825.55035	1339.91577	1461.08752	867.97955	1175.91101	1580.36536	659.17163	1244.05676	1316.29810	766.02924	1376.94690	1247.72778	736.08234	1179.07642	1236.53101	734.12665	1055.41809	1237.00500	753.85785	926.65680	1268.04553	767.44177	807.89886	1217.39087	743.44781	814.22174	1227.25610	755.52698	730.56891	1630.42834	795.44635	1365.74512	1709.54114	836.68732	1151.05273	1722.44727	879.11865	1047.71680	1718.43152	937.45416	924.19769	1674.87744	991.23932	844.76874	1721.40137	968.80444	828.84326	1707.31531	1014.41895	771.91400	1355.73828	834.74640	936.99463	1592.96265	834.25049	943.54114	1402.97119	672.35785	958.03131	1551.58423	673.52002	976.49664	1295.08057	849.07733	643.28601	1322.63159	917.33795	477.57870	1338.54492	879.88617	283.85944	1386.85413	879.14667	76.12727	1434.77002	847.52490	41.37105	1382.01343	1025.32837	46.48362	1630.93188	745.71973	653.46698	1596.04114	729.54889	474.65207	1595.25562	652.98047	297.43976	1541.96411	598.40802	87.11446	1488.77686	554.43011	61.14351	1530.03101	737.81165	35.68112	1456.72302	779.84479	1678.93213												 
